<svg xmlns="http://www.w3.org/2000/svg" data-name="Layer 1" viewBox="0 0 100 125" x="0px" y="0px"><title>travel</title><path d="M62.14752,95h4.87732a1.894,1.894,0,0,0,1.894-1.894V91.18738a9.45969,9.45969,0,0,0,9.4599-9.4596V30.22559a9.45963,9.45963,0,0,0-9.45959-9.4596H58.40851V9.20435h1.05121a2.10218,2.10218,0,0,0,0-4.20435H40.54053a2.10218,2.10218,0,1,0,0,4.20435h1.051V20.766H31.08081a9.45963,9.45963,0,0,0-9.45959,9.4596V81.72778a9.45967,9.45967,0,0,0,9.45929,9.4596V93.106A1.894,1.894,0,0,0,32.97455,95h4.87732a1.894,1.894,0,0,0,1.894-1.894V91.18738H60.25348V93.106A1.894,1.894,0,0,0,62.14752,95ZM45.79572,9.20435h8.4085V20.766h-8.4085ZM33.5,41.44263a2,2,0,0,1,0-4h33a2,2,0,0,1,0,4Z"/><text x="0" y="115" fill="#000000" font-size="5px" font-weight="bold" font-family="'Helvetica Neue', Helvetica, Arial-Unicode, Arial, Sans-serif">Created by Lyhn</text><text x="0" y="120" fill="#000000" font-size="5px" font-weight="bold" font-family="'Helvetica Neue', Helvetica, Arial-Unicode, Arial, Sans-serif">from the Noun Project</text></svg>